:SAMPLES-PER-SECOND 30
:FULLY-SPECIFIED
:DEGREES
311
root  35.16012177 36.49836262 -14.84095055 9.95330143 -0.05153933913 3.551793575
lowerback  -7.096579552 0.6119859815 1.389589667
upperback  -3.484517574 0.4660930037 -2.53354001
thorax  0.4153479934 0.07456550002 -3.360980034
lowerneck  -17.06710052 0.7701470256 0.8329240084
upperneck  14.94149971 -0.4786679745 5.871880054
head  7.428219795 0.2932749987 1.729310036
lclavicle  0 -4.497500157e-015 -2.743230041e-014
lhumerus  -42.20489883 20.29190063 75.19650269
lradius  -0.08828761429 -6.507048965e-006 29.96139908
lwrist  4.824992743e-007 -3.790274832e-007 -23.90589905
lhand  -4.408240579e-031 -36.77159882 -10.69909954
lfingers  90 7.125020027 -90
lthumb  94.76093921 -25.53903779 100.9338349
rclavicle  0 -4.497500157e-015 -2.743230041e-014
rhumerus  -55.47460556 -39.10509872 -52.34679794
rradius  -5.16745672e-007 2.214343908e-008 34.33789825
rwrist  1.380293725e-006 2.528095422e-007 -141.5540009
rhand  -1.772936348e-031 5.227429867 -6.015799999
rfingers  -90 -7.125020027 -90
rthumb  -84.08695906 -9.886571401 -58.90122156
rfemur  -13.54835606 14.38530254 12.65292454
rtibia  -1.15871799 -0.05870354176 21.72793961
rfoot  -0.8065229654 -20.16375732 -38.6672287
rtoes  3.933195382 19.62498224 -101.5693228
lfemur  -10.84393406 -17.81476021 -19.3575592
ltibia  1.818168163 0.5214279294 16.200243
lfoot  1.018775463 -27.34288788 35.28455734
ltoes  -8.551489724 -18.14765968 -115.7702964
312
root  35.16142838 36.49847376 -14.838878 9.948863983 -0.06812334806 3.537832499
lowerback  -7.083379745 0.6023800373 1.38994956
upperback  -3.485320091 0.4532389939 -2.541169882
thorax  0.4077019989 0.06792219728 -3.370079994
lowerneck  -17.09049988 0.8087610006 0.8739460111
upperneck  14.9531002 -0.4471859634 5.907899857
head  7.43558979 0.3137579858 1.73822999
lclavicle  0 -4.497500157e-015 -2.743230041e-014
lhumerus  -42.23799896 20.2595005 75.16889954
lradius  -0.0877686888 -6.507048965e-006 29.99259949
lwrist  4.824992743e-007 -3.790274832e-007 -23.8295002
lhand  -4.40528899e-031 -36.72019958 -10.74870014
lfingers  90 7.125020027 -90
lthumb  94.74723931 -25.58948939 100.8834137
rclavicle  0 -4.497500157e-015 -2.743230041e-014
rhumerus  -55.39789963 -38.65399933 -52.95520401
rradius  -5.16745672e-007 2.214343908e-008 34.54079819
rwrist  1.380293725e-006 2.528095422e-007 -142.0440063
rhand  -1.77225396e-031 4.980480194 -5.99751997
rfingers  -90 -7.125020027 -90
rthumb  -84.14106238 -9.888946379 -59.1412912
rfemur  -13.50943279 14.33238697 12.65739727
rtibia  -1.138651371 -0.070403032 21.6651535
rfoot  -0.7733092308 -20.17905807 -38.61791992
rtoes  3.93757099 19.62413804 -101.5823511
lfemur  -10.90914154 -17.80948448 -19.31882095
ltibia  1.768390179 0.5012106299 16.3094902
lfoot  1.018393278 -27.36029816 35.25033951
ltoes  -8.523213922 -18.1606049 -115.679545
313
root  35.16255176 36.49902344 -14.83718391 9.958612442 -0.07158542424 3.551687956
lowerback  -7.06072998 0.5900390744 1.420079827
upperback  -3.4864645 0.4361419976 -2.526550055
thorax  0.395186007 0.05957119912 -3.37322998
lowerneck  -17.07740021 0.8380740285 0.8562430143
upperneck  14.92949963 -0.4103999734 5.953529835
head  7.42468977 0.3336710334 1.75988996
lclavicle  0 -4.497500157e-015 -2.743230041e-014
lhumerus  -42.28739929 20.31270027 75.11849976
lradius  -0.0877686888 -6.507048965e-006 29.98070526
lwrist  4.824992743e-007 -3.790274832e-007 -23.91839981
lhand  -4.405753553e-031 -36.72829819 -10.70909977
lfingers  90 7.125020027 -90
lthumb  94.74275181 -25.55034973 100.8884889
rclavicle  0 -4.497500157e-015 -2.743230041e-014
rhumerus  -55.27230072 -38.24919891 -53.52230072
rradius  -5.16745672e-007 2.214343908e-008 34.75400162
rwrist  1.380293725e-006 2.528095422e-007 -141.9389954
rhand  -1.772430711e-031 5.045619965 -6.099969864
rfingers  -90 -7.125020027 -90
rthumb  -84.17775113 -9.804532075 -59.08669841
rfemur  -13.52865314 14.3022995 12.63957024
rtibia  -1.141689062 -0.09317298234 21.68950081
rfoot  -0.7931839824 -20.23038673 -38.61027908
rtoes  3.95887585 19.62001361 -101.6457934
lfemur  -10.86676979 -17.76698685 -19.35551071
ltibia  1.81392324 0.5324656367 16.23571587
lfoot  1.034448147 -27.3910656 35.26115799
ltoes  -8.555022688 -18.14603846 -115.7816398
314
root  35.16492769 36.49997861 -14.83576617 9.970845222 -0.08109349757 3.545480251
lowerback  -7.019209862 0.5789340734 1.43031013
upperback  -3.487687588 0.4210239947 -2.501369953
thorax  0.3579599857 0.05175029859 -3.354039907
lowerneck  -17.02300072 0.8487989902 0.8141679764
upperneck  14.88510036 -0.3796180487 5.955739975
head  7.399610043 0.3450939953 1.770020008
lclavicle  0 -4.497500157e-015 -2.743230041e-014
lhumerus  -42.38560104 20.3491993 75.09889984
lradius  -0.0877686888 -6.507048965e-006 29.99090195
lwrist  4.824992743e-007 -3.790274832e-007 -23.9246006
lhand  -4.404904877e-031 -36.71350098 -10.63700008
lfingers  90 7.125020027 -90
lthumb  94.72076683 -25.48013175 100.8661932
rclavicle  0 -4.497500157e-015 -2.743230041e-014
rhumerus  -55.15050125 -37.88050079 -53.99409866
rradius  -5.16745672e-007 2.214343908e-008 34.92169952
rwrist  1.380293725e-006 2.528095422e-007 -141.753006
rhand  -0 5.396140099 -6.077469826
rfingers  -90 -7.125020027 -90
rthumb  -84.07569737 -9.843041964 -58.74171509
rfemur  -13.54972458 14.30813789 12.6340313
rtibia  -1.134615541 -0.07416085899 21.7003994
rfoot  -0.7929401994 -20.20347023 -38.59911346
rtoes  3.912524714 19.62895704 -101.5077838
lfemur  -10.84686756 -17.70354462 -19.35799217
ltibia  1.829359412 0.5710180402 16.19236565
lfoot  1.047288418 -27.44797516 35.27475357
ltoes  -8.578931997 -18.13504494 -115.8584325
